<?xml version="1.0" encoding="UTF-8" standalone="no"?>
<svg
   width="256"
   height="256"
   viewBox="127.91564 143.589754 36.819901 36.819901"
   version="1.1"
   id="svg2"
   sodipodi:docname="pyscenedetect-64+.svg"
   inkscape:version="1.4.3 (0d15f75, 2025-12-25)"
   xmlns:inkscape="http://www.inkscape.org/namespaces/inkscape"
   xmlns:sodipodi="http://sodipodi.sourceforge.net/DTD/sodipodi-0.dtd"
   xmlns="http://www.w3.org/2000/svg"
   xmlns:svg="http://www.w3.org/2000/svg">
  <defs
     id="defs2" />
  <sodipodi:namedview
     id="namedview2"
     pagecolor="#ffffff"
     bordercolor="#000000"
     borderopacity="0.25"
     inkscape:showpageshadow="2"
     inkscape:pageopacity="0.0"
     inkscape:pagecheckerboard="0"
     inkscape:deskcolor="#d1d1d1"
     inkscape:zoom="6.4578909"
     inkscape:cx="146.56488"
     inkscape:cy="120.70504"
     inkscape:window-width="3440"
     inkscape:window-height="1369"
     inkscape:window-x="-8"
     inkscape:window-y="-8"
     inkscape:window-maximized="1"
     inkscape:current-layer="svg2"
     showgrid="true"
     inkscape:lockguides="true">
    <inkscape:grid
       id="grid1"
       units="px"
       originx="0"
       originy="0"
       spacingx="0.14382774"
       spacingy="0.14382774"
       empcolor="#0099e5"
       empopacity="0.30196078"
       color="#0099e5"
       opacity="0.14901961"
       empspacing="4"
       enabled="true"
       visible="true" />
  </sodipodi:namedview>
  <!-- Background with rounded corners -->
  <rect
     x="127.91564"
     y="143.65285"
     width="36.819901"
     height="36.756809"
     rx="2.5"
     ry="2.4957161"
     fill="#e0e8f0"
     id="rect1"
     style="display:inline;fill:#e0e8f0;fill-opacity:1;stroke-width:0.999143" />
  <!-- Border -->
  <!-- Logo -->
  <path
     fill="#2a3545"
     d="m 158.1888,144.74459 c 0,0 0.45304,-0.0962 -28.17448,8.04449 -0.74386,0.25366 -0.72567,0.62274 -0.72567,0.62274 0.0206,1.89546 0.003,2.40776 0.0198,4.29265 0,0 -0.10913,0.66824 -0.16358,1.00236 -0.0542,0.33415 -0.0629,0.67185 0.0175,1.0024 0.08,0.33058 0.32788,0.6867 0.42954,0.82401 0.10174,0.13737 0.60997,0.82405 0.60997,0.82405 l 0.015,16.17581 c 0,0.57531 0,0.57531 0.57531,0.57531 h 31.0668 c 0.57531,0 0.57531,0 0.57531,-0.57531 v -18.98526 c 0,-0.57531 0,-0.57531 -0.57531,-0.57531 h -27.03962 l 25.49268,-6.80371 c 0.3014,-0.0922 0.29466,-0.11059 0.0787,-0.6637 l -1.46458,-5.58532 c -0.14669,-0.25253 -0.33521,-0.2961 -0.73707,-0.17529 z m -25.79838,13.51559 c 0.4766,1.1e-4 0.86287,0.38654 0.86279,0.86314 -8e-5,0.47648 -0.38633,0.86271 -0.86279,0.8628 -0.47661,9e-5 -0.86304,-0.38619 -0.86314,-0.8628 -9e-5,-0.47673 0.38639,-0.86322 0.86314,-0.86314 z m 3.59788,2.01359 h 2.83866 l -2.31954,3.45187 h -2.83867 z m 5.1827,0 h 2.83867 l -2.31955,3.45187 h -2.83868 z m 5.18269,0 h 2.83866 l -2.31956,3.45187 h -2.83867 z m 5.18268,0 h 2.83866 l -2.31952,3.45187 h -2.83868 z m 5.18268,0 h 2.83869 l -2.31954,3.45187 h -2.83869 z m -23.0503,6.32842 h 25.31368 v 8.05436 h -25.31368 z"
     id="path2"
     sodipodi:nodetypes="cccccsccccccccccccccssssscccccccccccccccccccccccccccccc"
     style="fill:#2a3545;fill-opacity:1;stroke-width:0.986138" />
</svg>
