<?xml version="1.0" encoding="UTF-8" standalone="no"?>
<!--

PySceneDetect Logo

Copyright (C) 2026 Brandon Castellano <http://www.bcastell.com>.
PySceneDetect is licensed under the BSD 3-Clause License; see the
included LICENSE file, or visit one of the above pages for details.

-->
<svg
   width="256"
   height="256"
   viewBox="127.91564 143.589754 36.819901 36.819901"
   version="1.1"
   id="svg2"
   sodipodi:docname="pyscenedetect-64+.svg"
   inkscape:version="1.4.3 (0d15f75, 2025-12-25)"
   xmlns:inkscape="http://www.inkscape.org/namespaces/inkscape"
   xmlns:sodipodi="http://sodipodi.sourceforge.net/DTD/sodipodi-0.dtd"
   xmlns="http://www.w3.org/2000/svg"
   xmlns:svg="http://www.w3.org/2000/svg">
  <defs
     id="defs2" />
  <sodipodi:namedview
     id="namedview2"
     pagecolor="#ffffff"
     bordercolor="#000000"
     borderopacity="0.25"
     inkscape:showpageshadow="2"
     inkscape:pageopacity="0.0"
     inkscape:pagecheckerboard="0"
     inkscape:deskcolor="#d1d1d1"
     inkscape:zoom="4.5664184"
     inkscape:cx="85.077617"
     inkscape:cy="48.725276"
     inkscape:window-width="3440"
     inkscape:window-height="1369"
     inkscape:window-x="-8"
     inkscape:window-y="-8"
     inkscape:window-maximized="1"
     inkscape:current-layer="svg2"
     showgrid="true"
     inkscape:lockguides="true">
    <inkscape:grid
       id="grid1"
       units="px"
       originx="0"
       originy="0"
       spacingx="0.14382774"
       spacingy="0.14382774"
       empcolor="#00b5e5"
       empopacity="0.30196078"
       color="#00ace5"
       opacity="0.14901961"
       empspacing="4"
       enabled="true"
       visible="true"
       snapvisiblegridlinesonly="true" />
    <inkscape:grid
       type="axonomgrid"
       id="grid4"
       units="px"
       originx="0"
       originy="0"
       spacingx="0.5436009"
       spacingy="1.0737759"
       empcolor="#e50000"
       empopacity="0.30196078"
       color="#e50000"
       opacity="0.14901961"
       empspacing="4"
       dotted="false"
       gridanglex="14.931417"
       gridanglez="14.931417"
       enabled="true"
       visible="true"
       snapvisiblegridlinesonly="true" />
  </sodipodi:namedview>
  <!-- Background with rounded corners -->
  <rect
     x="127.91564"
     y="143.65285"
     width="36.819901"
     height="36.756809"
     rx="2.5"
     ry="2.4957161"
     fill="#e0e8f0"
     id="rect1"
     style="display:inline;fill:#e0e8f0;fill-opacity:1;stroke-width:0.999143" />
  <!-- Border -->
  <!-- Logo -->
  <path
     fill="#2a3545"
     d="m 158.98243,144.96926 -27.61492,7.36398 c -1.15063,0.30683 -1.15063,0.8809 -1.15063,1.53416 0,0.65326 -0.0168,-0.081 0,1.80388 -1.43827,0 -1.72405,1.86976 -1.72593,2.87656 -0.002,1.15062 0.28778,2.87655 1.72593,2.87655 v 16.10871 c 0,0.57531 0,0.57531 0.57531,0.57531 h 31.0668 c 0.57531,0 0.57531,0 0.57531,-0.57531 v -18.98526 c 0,-0.57531 0,-0.57531 -0.57531,-0.57531 h -23.44393 c 0,0 -0.008,0 22.86861,-6.1005 0.25381,-0.0677 0.51637,-0.41083 0.43149,-0.65941 l -2.01359,-5.89693 c -0.086,-0.25181 -0.46205,-0.41499 -0.71914,-0.34643 z m -27.32726,12.71561 c 0.4766,1.1e-4 0.86287,0.38654 0.86279,0.86314 -8e-5,0.47648 -0.38633,0.86271 -0.86279,0.8628 -0.47661,9e-5 -0.86304,-0.38619 -0.86314,-0.8628 -9e-5,-0.47673 0.38639,-0.86322 0.86314,-0.86314 z m 4.33313,2.5889 h 2.83866 l -2.31954,3.45187 h -2.83867 z m 5.1827,0 h 2.83867 l -2.31955,3.45187 h -2.83868 z m 5.18269,0 h 2.83866 l -2.31956,3.45187 h -2.83867 z m 5.18268,0 h 2.83866 l -2.31952,3.45187 h -2.83868 z m 5.18268,0 h 2.83869 l -2.31954,3.45187 h -2.83869 z m -23.0503,6.32842 h 25.31368 v 8.05436 h -25.31368 z m -0.67004,-12.59404 2.73921,-0.74477 3.10863,2.15667 -2.73923,0.74477 z m 5.00114,-1.35977 2.73922,-0.74478 3.10862,2.15668 -2.73924,0.74477 z m 5.00113,-1.35977 2.73921,-0.74477 3.10861,2.15667 -2.73923,0.74478 z m 5.00112,-1.35977 2.73921,-0.74477 3.10865,2.15667 -2.73924,0.74477 z m 5.00112,-1.35976 2.73924,-0.74478 3.10863,2.15667 -2.73925,0.74478 z"
     id="path2"
     sodipodi:nodetypes="sczcsccccccccsssssssssccccccccccccccccccccccccccccccccccccccccccccccccccccccc"
     style="fill:#2a3545;fill-opacity:1;stroke-width:0.986138" />
</svg>
