<?xml version="1.0" encoding="UTF-8" standalone="no"?>
<svg
   width="256"
   height="256"
   viewBox="127.91564 143.589754 36.819901 36.819901"
   version="1.1"
   id="svg2"
   sodipodi:docname="pyscenedetect.svg"
   inkscape:version="1.4.3 (0d15f75, 2025-12-25)"
   xmlns:inkscape="http://www.inkscape.org/namespaces/inkscape"
   xmlns:sodipodi="http://sodipodi.sourceforge.net/DTD/sodipodi-0.dtd"
   xmlns="http://www.w3.org/2000/svg"
   xmlns:svg="http://www.w3.org/2000/svg">
  <defs
     id="defs2" />
  <sodipodi:namedview
     id="namedview2"
     pagecolor="#ffffff"
     bordercolor="#000000"
     borderopacity="0.25"
     inkscape:showpageshadow="2"
     inkscape:pageopacity="0.0"
     inkscape:pagecheckerboard="0"
     inkscape:deskcolor="#d1d1d1"
     inkscape:zoom="1.1396485"
     inkscape:cx="-11.407026"
     inkscape:cy="169.78919"
     inkscape:window-width="3440"
     inkscape:window-height="1369"
     inkscape:window-x="-8"
     inkscape:window-y="-8"
     inkscape:window-maximized="1"
     inkscape:current-layer="svg2" />
  <!-- Background with rounded corners -->
  <rect
     x="127.91564"
     y="143.65285"
     width="36.819901"
     height="36.819901"
     rx="2.5"
     ry="2.5"
     fill="#e0e8f0"
     id="rect1"
     style="fill:#e0e8f0;fill-opacity:1" />
  <!-- Border -->
  <!-- Logo -->
  <path
     fill="#2a3545"
     d="m 158.98442,144.93958 c 0,0 0.45304,-0.0962 -28.17448,8.04449 -0.74386,0.25366 -0.72567,0.62274 -0.72567,0.62274 0.0206,1.89546 0.003,1.25714 0.0198,3.14203 0,0 -0.10913,0.66824 -0.16358,1.00236 -0.0542,0.33415 -0.0629,0.67185 0.0175,1.0024 0.08,0.33058 0.32788,0.6867 0.42954,0.82401 0.10174,0.13737 0.60997,0.82405 0.60997,0.82405 l 0.03,16.24292 c 0.009,0.8527 0.0112,0.85801 0.70222,0.84696 h 28.83419 c 0.59503,-0.006 0.59938,-3.8e-4 0.59213,-0.71395 0,0 0.0917,-12.10123 0.0787,-18.15188 -0.003,-0.78231 -0.003,-0.78335 -0.80266,-0.7843 -23.42044,-0.027 -23.41704,-0.049 -23.41704,-0.049 0,0 -0.0208,0.027 24.09263,-7.00391 0.3014,-0.0922 0.29466,-0.11059 0.0787,-0.6637 l -1.46458,-5.01001 c -0.14669,-0.25253 -0.33521,-0.2961 -0.73707,-0.17529 z m -26.59369,11.89384 c 0.72344,1.6e-4 1.30978,0.58674 1.30965,1.31018 -1.2e-4,0.72327 -0.58642,1.30954 -1.30965,1.30967 -0.72346,1.5e-4 -1.31004,-0.5862 -1.31019,-1.30967 -1.3e-4,-0.72364 0.58651,-1.3103 1.31019,-1.31018 z m 3.62869,2.33935 h 2.76117 l -2.3044,3.29521 h -2.76117 z m 5.04122,0 h 2.76117 l -2.3044,3.29521 h -2.76119 z m 5.0412,0 h 2.76117 l -2.30441,3.29521 h -2.76119 z m 5.0412,0 h 2.76117 l -2.3044,3.29521 h -2.76118 z m 5.04119,0 h 2.76119 l -2.30441,3.29521 h -2.76118 z m -23.07084,-5.43201 2.77081,-0.79116 4.00534,2.27593 -2.77082,0.79115 z m 4.8481,-1.38374 2.77082,-0.79119 4.00536,2.27591 -2.77083,0.79118 z m 4.84813,-1.38377 2.77079,-0.79119 4.00538,2.27592 -2.77082,0.79116 z m 4.8481,-1.38376 2.77084,-0.79121 4.00533,2.27592 -2.77082,0.79119 z m 4.84812,-1.38377 2.77084,-0.79121 4.00534,2.27593 -2.77082,0.79118 z m -19.23885,15.75471 h 25.75889 v 11.40856 h -25.75889 z"
     id="path2"
     sodipodi:nodetypes="cccccsccccccccccccccsssssccccccccccccccccccccccccccccccccccccccccccccccccccccccc"
     style="fill:#2a3545;fill-opacity:1;stroke-width:0.986138" />
</svg>
