<?xml version="1.0" encoding="UTF-8" standalone="no"?>
<svg
   width="256"
   height="256"
   viewBox="127.91564 143.589754 36.819901 36.819901"
   version="1.1"
   id="svg2"
   sodipodi:docname="pyscenedetect.svg"
   inkscape:version="1.4.3 (0d15f75, 2025-12-25)"
   xmlns:inkscape="http://www.inkscape.org/namespaces/inkscape"
   xmlns:sodipodi="http://sodipodi.sourceforge.net/DTD/sodipodi-0.dtd"
   xmlns="http://www.w3.org/2000/svg"
   xmlns:svg="http://www.w3.org/2000/svg">
  <defs
     id="defs2" />
  <sodipodi:namedview
     id="namedview2"
     pagecolor="#ffffff"
     bordercolor="#000000"
     borderopacity="0.25"
     inkscape:showpageshadow="2"
     inkscape:pageopacity="0.0"
     inkscape:pagecheckerboard="0"
     inkscape:deskcolor="#d1d1d1"
     inkscape:zoom="1.1396485"
     inkscape:cx="-203.57155"
     inkscape:cy="123.28363"
     inkscape:window-width="3440"
     inkscape:window-height="1369"
     inkscape:window-x="-8"
     inkscape:window-y="-8"
     inkscape:window-maximized="1"
     inkscape:current-layer="svg2" />
  <!-- Background with rounded corners -->
  <rect
     x="127.91564"
     y="143.589754"
     width="36.819901"
     height="36.819901"
     rx="2.5"
     ry="2.5"
     fill="#59606D"
     id="rect1"
     style="fill:#49505a;fill-opacity:1" />
  <!-- Border -->
  <!-- Logo -->
  <path
     fill="#c6f1e7"
     d="m 158.24602,146.81462 c 0,0 0.41794,-0.0887 -25.99221,7.42141 -0.68624,0.23401 -0.66947,0.57449 -0.66947,0.57449 0.0189,1.74865 0.003,1.15978 0.0184,2.89867 0,0 -0.10069,0.61649 -0.15092,0.92474 -0.0501,0.30826 -0.0581,0.6198 0.0161,0.92475 0.0739,0.30497 0.30248,0.6335 0.39627,0.76019 0.0938,0.12672 0.56273,0.76021 0.56273,0.76021 l 0.0277,14.98482 c 0.007,0.78665 0.0104,0.79156 0.64783,0.78136 h 26.60082 c 0.54895,-0.005 0.55295,-3.5e-4 0.54628,-0.65865 0,0 0.0847,-11.16393 0.0726,-16.74591 -0.003,-0.72172 -0.003,-0.72268 -0.74049,-0.72356 -21.60641,-0.025 -21.60327,-0.0452 -21.60327,-0.0452 0,0 -0.0193,0.025 22.22653,-6.46142 0.27806,-0.085 0.27185,-0.10208 0.0726,-0.6123 l -1.35113,-4.62195 c -0.13534,-0.23297 -0.30926,-0.27316 -0.67999,-0.16172 z m -24.53387,10.97261 c 0.6674,1.4e-4 1.20833,0.5413 1.20821,1.2087 -1.1e-4,0.66724 -0.541,1.20811 -1.20821,1.20823 -0.66741,1.3e-4 -1.20857,-0.5408 -1.20871,-1.20823 -1.1e-4,-0.6676 0.54109,-1.20881 1.20871,-1.2087 z m 3.34763,2.15815 h 2.5473 l -2.12591,3.03998 h -2.5473 z m 4.65074,0 h 2.54731 l -2.1259,3.03998 h -2.54733 z m 4.65075,0 h 2.5473 l -2.12593,3.03998 h -2.54731 z m 4.65072,0 h 2.54731 l -2.12591,3.03998 h -2.54731 z m 4.65074,0 h 2.54731 l -2.12592,3.03998 h -2.54731 z m -21.28389,-5.01126 2.55619,-0.7299 3.69511,2.09965 -2.5562,0.72988 z m 4.47259,-1.27658 2.55621,-0.72991 3.69511,2.09963 -2.55621,0.72991 z m 4.47262,-1.27659 2.55618,-0.7299 3.69514,2.09963 -2.55621,0.72989 z m 4.47258,-1.27658 2.55622,-0.72993 3.69511,2.09965 -2.55621,0.72991 z m 4.47262,-1.27658 2.55621,-0.72993 3.6951,2.09965 -2.55619,0.72989 z m -17.7487,14.53442 h 23.76373 v 10.5249 h -23.76373 z"
     id="path2"
     sodipodi:nodetypes="cccccsccccccccccccccsssssccccccccccccccccccccccccccccccccccccccccccccccccccccccc"
     style="stroke-width:0.909753;fill:#d7f1ea;fill-opacity:1" />
</svg>
