<?xml version="1.0" encoding="UTF-8" standalone="no"?>
<svg
   width="256"
   height="256"
   viewBox="127.91564 143.589754 36.819901 36.819901"
   version="1.1"
   id="svg2"
   sodipodi:docname="pyscenedetect-logo.svg"
   inkscape:version="1.4.3 (0d15f75, 2025-12-25)"
   xmlns:inkscape="http://www.inkscape.org/namespaces/inkscape"
   xmlns:sodipodi="http://sodipodi.sourceforge.net/DTD/sodipodi-0.dtd"
   xmlns="http://www.w3.org/2000/svg"
   xmlns:svg="http://www.w3.org/2000/svg">
  <defs
     id="defs2" />
  <sodipodi:namedview
     id="namedview2"
     pagecolor="#ffffff"
     bordercolor="#000000"
     borderopacity="0.25"
     inkscape:showpageshadow="2"
     inkscape:pageopacity="0.0"
     inkscape:pagecheckerboard="0"
     inkscape:deskcolor="#d1d1d1"
     inkscape:zoom="2.2792969"
     inkscape:cx="201.37789"
     inkscape:cy="166.93744"
     inkscape:window-width="3440"
     inkscape:window-height="1369"
     inkscape:window-x="-8"
     inkscape:window-y="-8"
     inkscape:window-maximized="1"
     inkscape:current-layer="svg2" />
  <!-- Background with rounded corners -->
  <rect
     x="127.91564"
     y="143.589754"
     width="36.819901"
     height="36.819901"
     rx="2.5"
     ry="2.5"
     fill="#59606D"
     id="rect1" />
  <!-- Border -->
  <!-- Logo -->
  <path
     fill="#c6f1e7"
     d="m 158.98751,144.72849 c 0,0 0.44522,-0.0945 -27.68846,7.90573 -0.73103,0.24928 -0.71316,0.61198 -0.71316,0.61198 0.0201,1.86277 0.003,1.23547 0.0196,3.08784 0,0 -0.10727,0.65672 -0.16077,0.98509 -0.0534,0.32837 -0.0619,0.66024 0.0171,0.98509 0.0787,0.32488 0.32223,0.67485 0.42214,0.8098 0.0999,0.13499 0.59945,0.80983 0.59945,0.80983 l 0.0295,15.96273 c 0.007,0.83799 0.0111,0.84322 0.6901,0.83235 h 28.3368 c 0.58477,-0.005 0.58903,-3.7e-4 0.58193,-0.70163 0,0 0.0902,-11.89249 0.0773,-17.83876 -0.003,-0.76881 -0.003,-0.76984 -0.78881,-0.77077 -23.01645,-0.0266 -23.0131,-0.0482 -23.0131,-0.0482 0,0 -0.0206,0.0266 23.67703,-6.88309 0.29621,-0.0905 0.28959,-0.10874 0.0773,-0.65226 l -1.43931,-4.92358 c -0.14417,-0.24817 -0.32944,-0.29098 -0.72436,-0.17227 z m -26.13495,11.68868 c 0.71095,1.5e-4 1.28718,0.57662 1.28705,1.28758 -1.1e-4,0.71078 -0.5763,1.28695 -1.28705,1.28708 -0.71097,1.4e-4 -1.28745,-0.57609 -1.28759,-1.28708 -1.2e-4,-0.71117 0.5764,-1.2877 1.28759,-1.28758 z m 3.56609,2.29899 h 2.71354 l -2.26465,3.23837 h -2.71353 z m 4.95425,0 h 2.71355 l -2.26464,3.23837 h -2.71357 z m 4.95426,0 h 2.71354 l -2.26467,3.23837 h -2.71355 z m 4.95423,0 h 2.71355 l -2.26465,3.23837 h -2.71355 z m 4.95424,0 h 2.71355 l -2.26466,3.23837 h -2.71354 z m -22.67288,-5.3383 2.72301,-0.77753 3.93626,2.23667 -2.72302,0.77752 z m 4.76448,-1.35989 2.72303,-0.77754 3.93625,2.23665 -2.72303,0.77755 z m 4.7645,-1.35989 2.723,-0.77754 3.93628,2.23665 -2.72303,0.77753 z m 4.76446,-1.35989 2.72304,-0.77757 3.93625,2.23667 -2.72302,0.77755 z m 4.76451,-1.3599 2.72302,-0.77756 3.93625,2.23667 -2.72301,0.77753 z m -18.90699,15.48294 h 25.31456 v 11.21176 h -25.31456 z"
     id="path2"
     sodipodi:nodetypes="cccccsccccccccccccccsssssccccccccccccccccccccccccccccccccccccccccccccccccccccccc"
     style="stroke-width:0.969124" />
</svg>
